<svg width="55" height="40" viewBox="0 0 55 40" fill="none" xmlns="http://www.w3.org/2000/svg">
<path fill-rule="evenodd" clip-rule="evenodd" d="M39.0037 25C37.0445 29.6979 32.4079 33 27 33C21.5921 33 16.9554 29.6979 14.9963 25H7.63008C9.8503 33.6261 17.6808 40 27 40C36.3192 40 44.1497 33.6261 46.3699 25H39.0037ZM14.9963 15C16.9554 10.3021 21.5921 7 27 7C32.4079 7 37.0445 10.3021 39.0037 15H46.3699C44.1497 6.37386 36.3192 0 27 0C17.6808 0 9.8503 6.37386 7.63008 15H14.9963Z" fill="black"/>
<path fill-rule="evenodd" clip-rule="evenodd" d="M33 21.0711L47.1421 35.2132L47.1421 21.0711L33 21.0711Z" fill="black"/>
<path fill-rule="evenodd" clip-rule="evenodd" d="M21.2132 18.1421L7.07106 4L7.07106 18.1421L21.2132 18.1421Z" fill="black"/>
</svg>
